<svg width="800" height="1400" viewBox="0 0 800 1400" xmlns="http://www.w3.org/2000/svg">
  <g transform="translate(0, 0)">
    <style></style><rect class="boundary" x="0" y="0" fill="#000" width="800" height="600" data-type="pcb_background" data-pcb-layer="global"/><rect class="pcb-boundary" fill="none" stroke="#fff" stroke-width="0.3" x="150" y="50" width="500" height="500" data-type="pcb_boundary" data-pcb-layer="global"/><path class="pcb-board" d="M 150 550 L 650 550 L 650 50 L 150 50 Z" fill="none" stroke="rgba(255, 255, 255, 0.5)" stroke-width="5" data-type="pcb_board" data-pcb-layer="board"/><g data-type="pcb_plated_hole" data-pcb-layer="through"><rect class="pcb-hole-outer-pad" fill="rgb(200, 52, 52)" x="-75" y="-100" width="150" height="200" transform="translate(400 300) rotate(0)" rx="10" ry="10" data-type="pcb_plated_hole" data-pcb-layer="top"/><rect class="pcb-hole-inner" fill="#FF26E2" x="-25" y="-50" width="50" height="100" rx="25" ry="25" transform="translate(425 275) rotate(-45)" data-type="pcb_plated_hole_drill" data-pcb-layer="drill"/></g>
  </g>
  <g transform="translate(0, 600) scale(26.666666666666668, 26.666666666666668) translate(14.9, 14.9)">
    <rect x="-14.9" y="-14.9" width="30" height="30" fill="white"/><g transform="matrix(1 0 0 -1 0 0.1999999999999993)"><g transform="matrix(1,0,0,1,0,0)"><path d="M 0.5999999999999999 -0.10710678118654748 L 0.636356748511451 -0.1400586172746423 L 0.6757682740834726 -0.16928819674454643 L 0.7178550221802746 -0.19451402276745122 L 0.7622116744107287 -0.21549315684891718 L 0.8084110519660426 -0.23202355845937828 L 0.8560082295852094 -0.24394603079488897 L 0.9045448204284932 -0.2511457539293722 L 0.9535533905932736 -0.2535533905932738 L 1.0025619607580538 -0.2511457539293722 L 1.051098551601338 -0.24394603079488908 L 1.0986957292205046 -0.23202355845937833 L 1.1448951067758184 -0.21549315684891734 L 1.1892517590062726 -0.19451402276745133 L 1.2313385071030747 -0.16928819674454665 L 1.2707500326750965 -0.1400586172746423 L 1.3071067811865473 -0.1071067811865477 L 1.340058617274642 -0.07075003267509683 L 1.3692881967445465 -0.031338507103075064 L 1.394514022767451 0.010748240993727176 L 1.415493156848917 0.05510489322418144 L 1.4320235584593781 0.101304270779495 L 1.4439460307948888 0.14890144839866182 L 1.4511457539293722 0.19743803924194558 L 1.4535533905932736 0.24644660940672602 L 1.4511457539293722 0.2954551795715066 L 1.4439460307948888 0.34399177041479023 L 1.4320235584593783 0.39158894803395716 L 1.4154931568489173 0.4377883255892706 L 1.394514022767451 0.4821449778197249 L 1.3692881967445465 0.524231725916527 L 1.340058617274642 0.563643251488549 L 1.3071067811865476 0.6 L 0.6000000000000001 1.3071067811865476 L 0.6000000000000001 1.3071067811865476 L 0.563643251488549 1.3400586172746423 L 0.5242317259165272 1.3692881967445465 L 0.4821449778197249 1.3945140227674513 L 0.4377883255892711 1.415493156848917 L 0.3915889480339575 1.4320235584593783 L 0.34399177041479034 1.443946030794889 L 0.29545517957150647 1.4511457539293724 L 0.24644660940672636 1.453553390593274 L 0.19743803924194592 1.4511457539293722 L 0.14890144839866204 1.4439460307948893 L 0.10130427077949511 1.4320235584593783 L 0.05510489322418122 1.4154931568489173 L 0.01074824099372751 1.3945140227674513 L -0.03133850710307484 1.3692881967445465 L -0.0707500326750965 1.3400586172746425 L -0.10710678118654748 1.3071067811865476 L -0.14005861727464242 1.2707500326750967 L -0.16928819674454643 1.2313385071030751 L -0.19451402276745133 1.189251759006273 L -0.21549315684891723 1.1448951067758188 L -0.23202355845937817 1.098695729220505 L -0.24394603079488908 1.051098551601338 L -0.2511457539293722 1.0025619607580543 L -0.25355339059327375 0.9535533905932738 L -0.25114575392937233 0.9045448204284936 L -0.24394603079488908 0.8560082295852097 L -0.23202355845937828 0.8084110519660428 L -0.2154931568489173 0.7622116744107291 L -0.1945140227674514 0.7178550221802751 L -0.16928819674454654 0.6757682740834728 L -0.14005861727464236 0.6363567485114513 L -0.1071067811865476 0.6000000000000001 L 0.5999999999999999 -0.10710678118654754 L 0.5999999999999999 -0.10710678118654748 L 0.5999999999999999 -0.10710678118654748 Z" fill="none" stroke="#FF0000" stroke-width="0.1" stroke-linecap="round" stroke-linejoin="round"/></g><g transform="matrix(1,0,0,1,0,0)"><path d="M -4.9 -4.9 L 5.1 -4.9 L 5.1 5.1 L -4.9 5.1 L -4.9 -4.9 L -4.9 -4.9 Z" fill="none" stroke="#FF0000" stroke-width="0.1" stroke-linecap="round" stroke-linejoin="round"/></g><g transform="matrix(1,0,0,1,0,0)"><path d="M 0.6799999999999999 0.6 L 0.6739103626009029 0.6306146745892072 L 0.6565685424949238 0.6565685424949238 L 0.6306146745892072 0.6739103626009029 L 0.6 0.6799999999999999 L 0.5693853254107928 0.6739103626009029 L 0.5434314575050762 0.6565685424949238 L 0.5260896373990971 0.6306146745892072 L 0.52 0.6 L 0.5260896373990971 0.5693853254107928 L 0.5434314575050762 0.5434314575050762 L 0.5693853254107928 0.5260896373990971 L 0.6 0.52 L 0.6306146745892072 0.5260896373990971 L 0.6565685424949238 0.5434314575050762 L 0.6739103626009029 0.5693853254107928 L 0.6799999999999999 0.6 L 0.6799999999999999 0.6 Z" fill="none" stroke="#800080" stroke-width="0.1" stroke-linecap="round" stroke-linejoin="round"/></g><g transform="matrix(1,0,0,1,0,0)"><path d="M 0.6799999999999999 0.6 L 0.6739103626009029 0.6306146745892072 L 0.6565685424949238 0.6565685424949238 L 0.6306146745892072 0.6739103626009029 L 0.6 0.6799999999999999 L 0.5693853254107928 0.6739103626009029 L 0.5434314575050762 0.6565685424949238 L 0.5260896373990971 0.6306146745892072 L 0.52 0.6 L 0.5260896373990971 0.5693853254107928 L 0.5434314575050762 0.5434314575050762 L 0.5693853254107928 0.5260896373990971 L 0.6 0.52 L 0.6306146745892072 0.5260896373990971 L 0.6565685424949238 0.5434314575050762 L 0.6739103626009029 0.5693853254107928 L 0.6799999999999999 0.6 L 0.6799999999999999 0.6 Z" fill="none" stroke="#008080" stroke-width="0.1" stroke-linecap="round" stroke-linejoin="round"/></g><g transform="matrix(1,0,0,1,0,0)"><path d="M 1.4765366837382317 -1.8847759068012238 L 1.541421353816986 -1.8414213582873344 L 1.584775909781456 -1.77653668820858 L 1.6000000014901161 -1.7000000029802322 L 1.6000000014901161 1.8999999985098839 L 1.584775909781456 1.9765366837382317 L 1.541421353816986 2.041421353816986 L 1.4765366837382317 2.084775909781456 L 1.3999999985098839 2.100000001490116 L -1.2000000029802322 2.100000001490116 L -1.27653668820858 2.084775909781456 L -1.3414213582873344 2.041421353816986 L -1.3847759068012238 1.9765366837382317 L -1.3999999985098839 1.8999999985098839 L -1.3999999985098839 -1.7000000029802322 L -1.3847759068012238 -1.77653668820858 L -1.3414213582873344 -1.8414213582873344 L -1.27653668820858 -1.8847759068012238 L -1.2000000029802322 -1.8999999985098839 L 1.3999999985098839 -1.8999999985098839 L 1.4765366837382317 -1.8847759068012238 L 1.4765366837382317 -1.8847759068012238" fill="none" stroke="#000000" stroke-width="0.1" stroke-linecap="round" stroke-linejoin="round"/></g><g transform="matrix(1,0,0,1,0,0)"><path d="M 1.4765366837382317 -1.8847759068012238 L 1.541421353816986 -1.8414213582873344 L 1.584775909781456 -1.77653668820858 L 1.6000000014901161 -1.7000000029802322 L 1.6000000014901161 1.8999999985098839 L 1.584775909781456 1.9765366837382317 L 1.541421353816986 2.041421353816986 L 1.4765366837382317 2.084775909781456 L 1.3999999985098839 2.100000001490116 L -1.2000000029802322 2.100000001490116 L -1.27653668820858 2.084775909781456 L -1.3414213582873344 2.041421353816986 L -1.3847759068012238 1.9765366837382317 L -1.3999999985098839 1.8999999985098839 L -1.3999999985098839 -1.7000000029802322 L -1.3847759068012238 -1.77653668820858 L -1.3414213582873344 -1.8414213582873344 L -1.27653668820858 -1.8847759068012238 L -1.2000000029802322 -1.8999999985098839 L 1.3999999985098839 -1.8999999985098839 L 1.4765366837382317 -1.8847759068012238 L 1.4765366837382317 -1.8847759068012238" fill="none" stroke="#0000FF" stroke-width="0.1" stroke-linecap="round" stroke-linejoin="round"/></g></g>
  </g>
</svg>