<svg width="800" height="1400" viewBox="0 0 800 1400" xmlns="http://www.w3.org/2000/svg">
  <g transform="translate(0, 0)">
    <style></style><rect class="boundary" x="0" y="0" fill="#000" width="800" height="600" data-type="pcb_background" data-pcb-layer="global"/><rect class="pcb-boundary" fill="none" stroke="#fff" stroke-width="0.3" x="150" y="50" width="500" height="500" data-type="pcb_boundary" data-pcb-layer="global"/><path class="pcb-board" d="M 150 550 L 650 550 L 650 50 L 150 50 Z" fill="none" stroke="rgba(255, 255, 255, 0.5)" stroke-width="5" data-type="pcb_board" data-pcb-layer="board"/><g data-type="pcb_plated_hole" data-pcb-layer="through"><rect class="pcb-hole-outer-pad" fill="rgb(200, 52, 52)" x="325" y="200" width="150" height="200" rx="10" ry="10" data-type="pcb_plated_hole" data-pcb-layer="top"/><rect class="pcb-hole-inner" fill="#FF26E2" x="400" y="225" width="50" height="100" rx="25" ry="25" data-type="pcb_plated_hole_drill" data-pcb-layer="drill"/></g>
  </g>
  <g transform="translate(0, 600) scale(26.666666666666668, 26.666666666666668) translate(14.9, 14.9)">
    <rect x="-14.9" y="-14.9" width="30" height="30" fill="white"/><g transform="matrix(1 0 0 -1 0 0.1999999999999993)"><g transform="matrix(1,0,0,1,0,0)"><path d="M 0.09999999999999998 0.10000000000000003 L 0.10240763666390151 0.05099142983521968 L 0.10960735979838476 0.0024548389919357982 L 0.12152983213389551 -0.04514233862723108 L 0.13806023374435655 -0.09134171618254486 L 0.15903936782582245 -0.13569836841299884 L 0.18426519384872725 -0.177785116509801 L 0.21349477331863143 -0.21719664208182266 L 0.24644660940672614 -0.25355339059327375 L 0.28280335791817707 -0.28650522668136835 L 0.3222148834901989 -0.31573480615127264 L 0.364301631587001 -0.3409606321741775 L 0.40865828381745484 -0.3619397662556433 L 0.45485766137276873 -0.37847016786610443 L 0.5024548389919357 -0.3903926402016152 L 0.5509914298352198 -0.3975923633360985 L 0.5999999999999999 -0.4 L 0.64900857016478 -0.3975923633360985 L 0.6975451610080641 -0.39039264020161524 L 0.745142338627231 -0.3784701678661045 L 0.791341716182545 -0.36193976625564334 L 0.8356983684129988 -0.34096063217417755 L 0.877785116509801 -0.31573480615127275 L 0.9171966420818225 -0.28650522668136874 L 0.9535533905932736 -0.25355339059327386 L 0.9865052266813685 -0.21719664208182266 L 1.0157348061512725 -0.1777851165098011 L 1.0409606321741773 -0.135698368412999 L 1.0619397662556431 -0.09134171618254522 L 1.0784701678661044 -0.04514233862723127 L 1.090392640201615 0.002454838991935618 L 1.0975923633360984 0.050991429835219725 L 1.1 0.09999999999999985 L 1.1 1.1 L 1.1 1.1 L 1.0975923633360984 1.1490085701647803 L 1.0903926402016153 1.1975451610080643 L 1.0784701678661044 1.2451423386272313 L 1.0619397662556433 1.291341716182545 L 1.0409606321741776 1.3356983684129988 L 1.0157348061512725 1.3777851165098012 L 0.9865052266813685 1.417196642081823 L 0.9535533905932738 1.4535533905932738 L 0.9171966420818227 1.4865052266813685 L 0.8777851165098012 1.5157348061512728 L 0.8356983684129988 1.5409606321741776 L 0.7913417161825449 1.5619397662556436 L 0.7451423386272311 1.5784701678661044 L 0.6975451610080642 1.5903926402016153 L 0.6490085701647803 1.5975923633360984 L 0.6 1.6 L 0.5509914298352196 1.5975923633360987 L 0.5024548389919359 1.5903926402016153 L 0.4548576613727689 1.5784701678661046 L 0.4086582838174551 1.5619397662556436 L 0.36430163158700113 1.5409606321741776 L 0.322214883490199 1.5157348061512728 L 0.2828033579181773 1.4865052266813685 L 0.24644660940672625 1.4535533905932738 L 0.21349477331863148 1.417196642081823 L 0.1842651938487273 1.3777851165098012 L 0.1590393678258225 1.335698368412999 L 0.1380602337443566 1.2913417161825451 L 0.12152983213389557 1.2451423386272313 L 0.10960735979838476 1.1975451610080643 L 0.10240763666390157 1.1490085701647805 L 0.09999999999999998 1.1 L 0.09999999999999998 0.09999999999999998 L 0.09999999999999998 0.10000000000000003 L 0.09999999999999998 0.10000000000000003 Z" fill="none" stroke="#FF0000" stroke-width="0.1" stroke-linecap="round" stroke-linejoin="round"/></g><g transform="matrix(1,0,0,1,0,0)"><path d="M -4.9 -4.9 L 5.1 -4.9 L 5.1 5.1 L -4.9 5.1 L -4.9 -4.9 L -4.9 -4.9 Z" fill="none" stroke="#FF0000" stroke-width="0.1" stroke-linecap="round" stroke-linejoin="round"/></g><g transform="matrix(1,0,0,1,0,0)"><path d="M 0.6799999999999999 0.6 L 0.6739103626009029 0.6306146745892072 L 0.6565685424949238 0.6565685424949238 L 0.6306146745892072 0.6739103626009029 L 0.6 0.6799999999999999 L 0.5693853254107928 0.6739103626009029 L 0.5434314575050762 0.6565685424949238 L 0.5260896373990971 0.6306146745892072 L 0.52 0.6 L 0.5260896373990971 0.5693853254107928 L 0.5434314575050762 0.5434314575050762 L 0.5693853254107928 0.5260896373990971 L 0.6 0.52 L 0.6306146745892072 0.5260896373990971 L 0.6565685424949238 0.5434314575050762 L 0.6739103626009029 0.5693853254107928 L 0.6799999999999999 0.6 L 0.6799999999999999 0.6 Z" fill="none" stroke="#800080" stroke-width="0.1" stroke-linecap="round" stroke-linejoin="round"/></g><g transform="matrix(1,0,0,1,0,0)"><path d="M 0.6799999999999999 0.6 L 0.6739103626009029 0.6306146745892072 L 0.6565685424949238 0.6565685424949238 L 0.6306146745892072 0.6739103626009029 L 0.6 0.6799999999999999 L 0.5693853254107928 0.6739103626009029 L 0.5434314575050762 0.6565685424949238 L 0.5260896373990971 0.6306146745892072 L 0.52 0.6 L 0.5260896373990971 0.5693853254107928 L 0.5434314575050762 0.5434314575050762 L 0.5693853254107928 0.5260896373990971 L 0.6 0.52 L 0.6306146745892072 0.5260896373990971 L 0.6565685424949238 0.5434314575050762 L 0.6739103626009029 0.5693853254107928 L 0.6799999999999999 0.6 L 0.6799999999999999 0.6 Z" fill="none" stroke="#008080" stroke-width="0.1" stroke-linecap="round" stroke-linejoin="round"/></g><g transform="matrix(1,0,0,1,0,0)"><path d="M 1.4765366837382317 -1.8847759068012238 L 1.541421353816986 -1.8414213582873344 L 1.584775909781456 -1.77653668820858 L 1.6000000014901161 -1.7000000029802322 L 1.6000000014901161 1.8999999985098839 L 1.584775909781456 1.9765366837382317 L 1.541421353816986 2.041421353816986 L 1.4765366837382317 2.084775909781456 L 1.3999999985098839 2.100000001490116 L -1.2000000029802322 2.100000001490116 L -1.27653668820858 2.084775909781456 L -1.3414213582873344 2.041421353816986 L -1.3847759068012238 1.9765366837382317 L -1.3999999985098839 1.8999999985098839 L -1.3999999985098839 -1.7000000029802322 L -1.3847759068012238 -1.77653668820858 L -1.3414213582873344 -1.8414213582873344 L -1.27653668820858 -1.8847759068012238 L -1.2000000029802322 -1.8999999985098839 L 1.3999999985098839 -1.8999999985098839 L 1.4765366837382317 -1.8847759068012238 L 1.4765366837382317 -1.8847759068012238" fill="none" stroke="#000000" stroke-width="0.1" stroke-linecap="round" stroke-linejoin="round"/></g><g transform="matrix(1,0,0,1,0,0)"><path d="M 1.4765366837382317 -1.8847759068012238 L 1.541421353816986 -1.8414213582873344 L 1.584775909781456 -1.77653668820858 L 1.6000000014901161 -1.7000000029802322 L 1.6000000014901161 1.8999999985098839 L 1.584775909781456 1.9765366837382317 L 1.541421353816986 2.041421353816986 L 1.4765366837382317 2.084775909781456 L 1.3999999985098839 2.100000001490116 L -1.2000000029802322 2.100000001490116 L -1.27653668820858 2.084775909781456 L -1.3414213582873344 2.041421353816986 L -1.3847759068012238 1.9765366837382317 L -1.3999999985098839 1.8999999985098839 L -1.3999999985098839 -1.7000000029802322 L -1.3847759068012238 -1.77653668820858 L -1.3414213582873344 -1.8414213582873344 L -1.27653668820858 -1.8847759068012238 L -1.2000000029802322 -1.8999999985098839 L 1.3999999985098839 -1.8999999985098839 L 1.4765366837382317 -1.8847759068012238 L 1.4765366837382317 -1.8847759068012238" fill="none" stroke="#0000FF" stroke-width="0.1" stroke-linecap="round" stroke-linejoin="round"/></g></g>
  </g>
</svg>