<svg width="800" height="1266.6666666666667" viewBox="0 0 800 1266.6666666666667" xmlns="http://www.w3.org/2000/svg">
  <g transform="translate(0, 0)">
    <style></style><rect class="boundary" x="0" y="0" fill="#000" width="800" height="600" data-type="pcb_background" data-pcb-layer="global"/><rect class="pcb-boundary" fill="none" stroke="#fff" stroke-width="0.3" x="25" y="18.75" width="750" height="562.5" data-type="pcb_boundary" data-pcb-layer="global"/><path class="pcb-board" d="M 400 581.25 L 775 356.25 L 625 18.75 L 175 18.75 L 25 356.25 Z" fill="none" stroke="rgba(255, 255, 255, 0.5)" stroke-width="1.875" data-type="pcb_board" data-pcb-layer="board"/><rect class="pcb-pad" fill="rgb(200, 52, 52)" x="193.75" y="271.875" width="37.5" height="56.25" data-type="pcb_smtpad" data-pcb-layer="top"/>
  </g>
  <g transform="translate(0, 600) scale(13.333333333333334, 13.333333333333336) translate(10, 10)">
    <defs><pattern id="hatch-0.0050-45-true-_23C0C0C0-0.1000-0.80__stack1" patternUnits="userSpaceOnUse" width="0.005" height="0.005" patternTransform="rotate(45)"><path d="M -0.005 0 L 0.005 0 M 0 -0.005 L 0 0.005" stroke="#C0C0C0" stroke-width="0.1" stroke-opacity="0.8"/></pattern><pattern id="hatch-0.0050-45-true-_23808080-0.1000-0.80__stack1" patternUnits="userSpaceOnUse" width="0.005" height="0.005" patternTransform="rotate(45)"><path d="M -0.005 0 L 0.005 0 M 0 -0.005 L 0 0.005" stroke="#808080" stroke-width="0.1" stroke-opacity="0.8"/></pattern></defs><rect x="-10" y="-10" width="60" height="50" fill="white"/><g transform="matrix(1 0 0 -1 0 30)"><g transform="matrix(1,0,0,1,0,0)"><path d="M 20 0 L 40 12 L 32 30 L 8 30 L 0 12 L 20 0 L 20 0 Z" fill="none" stroke="#FF0000" stroke-width="0.1" stroke-linecap="round" stroke-linejoin="round"/></g><g transform="matrix(1,0,0,1,0,0)"><path d="M 11 16.5 L 9 16.5 L 9 13.5 L 11 13.5 L 11 16.5 L 11 16.5" fill="none" stroke="#000000" stroke-width="0.1" stroke-linecap="round" stroke-linejoin="round"/></g><g transform="matrix(1,0,0,1,0,0)"><path d="M 20 0 L 40 12 L 32 30 L 8 30 L 0 12 L 20 0 L 20 0 Z" fill="url(#hatch-0.0050-45-true-_23C0C0C0-0.1000-0.80__stack1)" fill-rule="nonzero" stroke="none"/><path d="M 20 0 L 40 12 L 32 30 L 8 30 L 0 12 L 20 0 L 20 0 Z" fill="none" stroke="#C0C0C0" stroke-width="0.1" stroke-linecap="round" stroke-linejoin="round"/></g><g transform="matrix(1,0,0,1,0,0)"><path d="M 20 0 L 40 12 L 32 30 L 8 30 L 0 12 L 20 0 L 20 0 Z" fill="url(#hatch-0.0050-45-true-_23808080-0.1000-0.80__stack1)" fill-rule="nonzero" stroke="none"/><path d="M 20 0 L 40 12 L 32 30 L 8 30 L 0 12 L 20 0 L 20 0 Z" fill="none" stroke="#808080" stroke-width="0.1" stroke-linecap="round" stroke-linejoin="round"/></g></g>
  </g>
</svg>