<svg xmlns="http://www.w3.org/2000/svg" width="600" height="400" viewBox="-2.5000000000000018 -0.7620819243640051 16.68 11.899999999999999" style="background-color: white;"><rect x="-2.5000000000000018" y="-0.7620819243640051" width="16.68" height="11.899999999999999" fill="white"/><g transform="matrix(1 0 0 -1 0 10.37583615127199)"><g transform="matrix(1,0,0,1,0,0)"><path d="M 5.0699999999999985 1.9879180756359949 L 5.060392640201614 2.085463236644059 L 5.0319397662556415 2.1792597918185397 L 4.985734806151271 2.265703192145796 L 4.9235533905932725 2.341471466229269 L 4.8477851165098 2.4036528817872673 L 4.761341716182543 2.4498578418916384 L 4.6675451610080625 2.47831071583761 L 4.5699999999999985 2.487918075635995 L 4.4724548389919345 2.47831071583761 L 4.378658283817454 2.4498578418916384 L 4.292214883490198 2.4036528817872673 L 4.2164466094067246 2.341471466229269 L 4.154265193848726 2.265703192145796 L 4.1080602337443555 2.1792597918185397 L 4.079607359798383 2.0854632366440593 L 4.0699999999999985 1.9879180756359949 L 4.079607359798383 1.8903729146279307 L 4.1080602337443555 1.79657635945345 L 4.154265193848726 1.7101329591261938 L 4.2164466094067246 1.6343646850427211 L 4.292214883490198 1.5721832694847222 L 4.378658283817454 1.5259783093803516 L 4.4724548389919345 1.4975254354343797 L 4.5699999999999985 1.4879180756359949 L 4.6675451610080625 1.4975254354343797 L 4.761341716182543 1.5259783093803516 L 4.847785116509799 1.5721832694847222 L 4.9235533905932725 1.634364685042721 L 4.985734806151271 1.7101329591261938 L 5.0319397662556415 1.7965763594534496 L 5.060392640201614 1.8903729146279304 L 5.0699999999999985 1.9879180756359949 L 5.0699999999999985 1.9879180756359949 Z" fill="none" stroke="#FF0000" stroke-width="0.03" stroke-linecap="round" stroke-linejoin="round"/></g><g transform="matrix(1,0,0,1,0,0)"><path d="M 7.609999999999998 1.9879180756359949 L 7.607592363336096 2.0369266458007753 L 7.600392640201613 2.085463236644059 L 7.588470167866102 2.133060414263226 L 7.571939766255641 2.1792597918185397 L 7.550960632174175 2.223616444048994 L 7.52573480615127 2.265703192145796 L 7.496505226681366 2.3051147177178177 L 7.463553390593272 2.341471466229269 L 7.42719664208182 2.3744233023173633 L 7.387785116509799 2.4036528817872673 L 7.345698368412997 2.4288787078101723 L 7.3013417161825425 2.4498578418916384 L 7.255142338627229 2.466388243502099 L 7.207545161008062 2.47831071583761 L 7.159008570164778 2.4855104389720934 L 7.109999999999998 2.487918075635995 L 7.060991429835218 2.4855104389720934 L 7.012454838991934 2.47831071583761 L 6.964857661372767 2.466388243502099 L 6.918658283817453 2.4498578418916384 L 6.874301631586999 2.4288787078101723 L 6.832214883490197 2.4036528817872673 L 6.792803357918175 2.3744233023173633 L 6.756446609406724 2.341471466229269 L 6.723494773318629 2.3051147177178177 L 6.694265193848725 2.265703192145796 L 6.66903936782582 2.223616444048994 L 6.648060233744355 2.1792597918185397 L 6.631529832133893 2.133060414263226 L 6.619607359798382 2.0854632366440593 L 6.6124076366638995 2.0369266458007753 L 6.609999999999998 1.9879180756359949 L 6.6124076366638995 1.9389095054712147 L 6.619607359798382 1.8903729146279307 L 6.631529832133893 1.8427757370087638 L 6.648060233744355 1.79657635945345 L 6.66903936782582 1.7522197072229961 L 6.694265193848725 1.7101329591261938 L 6.723494773318629 1.6707214335541722 L 6.756446609406724 1.6343646850427211 L 6.792803357918174 1.6014128489546264 L 6.832214883490197 1.5721832694847222 L 6.874301631586999 1.5469574434618174 L 6.918658283817453 1.5259783093803516 L 6.964857661372767 1.5094479077698906 L 7.012454838991934 1.4975254354343797 L 7.060991429835218 1.4903257122998963 L 7.109999999999998 1.4879180756359949 L 7.159008570164778 1.4903257122998963 L 7.207545161008062 1.4975254354343797 L 7.255142338627229 1.5094479077698904 L 7.3013417161825425 1.5259783093803516 L 7.345698368412997 1.5469574434618174 L 7.387785116509798 1.5721832694847222 L 7.42719664208182 1.6014128489546264 L 7.463553390593272 1.634364685042721 L 7.496505226681366 1.670721433554172 L 7.52573480615127 1.7101329591261938 L 7.550960632174175 1.752219707222996 L 7.571939766255641 1.7965763594534496 L 7.588470167866102 1.8427757370087636 L 7.600392640201613 1.8903729146279304 L 7.607592363336096 1.9389095054712147 L 7.609999999999998 1.9879180756359949 L 7.609999999999998 1.9879180756359949 Z" fill="none" stroke="#FF0000" stroke-width="0.03" stroke-linecap="round" stroke-linejoin="round"/></g><g transform="matrix(1,0,0,1,0,0)"><path d="M 5.0699999999999985 8.387918075635994 L 5.060392640201614 8.485463236644058 L 5.0319397662556415 8.57925979181854 L 4.985734806151271 8.665703192145795 L 4.9235533905932725 8.741471466229267 L 4.8477851165098 8.803652881787267 L 4.761341716182543 8.849857841891637 L 4.6675451610080625 8.87831071583761 L 4.5699999999999985 8.887918075635994 L 4.4724548389919345 8.87831071583761 L 4.378658283817454 8.849857841891637 L 4.292214883490198 8.803652881787267 L 4.2164466094067246 8.741471466229267 L 4.154265193848726 8.665703192145795 L 4.1080602337443555 8.57925979181854 L 4.079607359798383 8.485463236644058 L 4.0699999999999985 8.387918075635994 L 4.079607359798383 8.29037291462793 L 4.1080602337443555 8.196576359453449 L 4.154265193848726 8.110132959126194 L 4.2164466094067246 8.034364685042721 L 4.292214883490198 7.972183269484722 L 4.378658283817454 7.925978309380351 L 4.4724548389919345 7.897525435434379 L 4.5699999999999985 7.887918075635994 L 4.6675451610080625 7.897525435434379 L 4.761341716182543 7.925978309380351 L 4.847785116509799 7.972183269484722 L 4.9235533905932725 8.034364685042721 L 4.985734806151271 8.110132959126194 L 5.0319397662556415 8.196576359453449 L 5.060392640201614 8.29037291462793 L 5.0699999999999985 8.387918075635994 L 5.0699999999999985 8.387918075635994 Z" fill="none" stroke="#FF0000" stroke-width="0.03" stroke-linecap="round" stroke-linejoin="round"/></g><g transform="matrix(1,0,0,1,0,0)"><path d="M 7.609999999999998 8.387918075635994 L 7.607592363336096 8.436926645800774 L 7.600392640201613 8.485463236644058 L 7.588470167866102 8.533060414263225 L 7.571939766255641 8.57925979181854 L 7.550960632174175 8.623616444048993 L 7.52573480615127 8.665703192145795 L 7.496505226681366 8.705114717717818 L 7.463553390593272 8.741471466229267 L 7.42719664208182 8.774423302317363 L 7.387785116509799 8.803652881787267 L 7.345698368412997 8.828878707810173 L 7.3013417161825425 8.849857841891637 L 7.255142338627229 8.866388243502099 L 7.207545161008062 8.87831071583761 L 7.159008570164778 8.885510438972092 L 7.109999999999998 8.887918075635994 L 7.060991429835218 8.885510438972092 L 7.012454838991934 8.87831071583761 L 6.964857661372767 8.866388243502099 L 6.918658283817453 8.849857841891637 L 6.874301631586999 8.828878707810173 L 6.832214883490197 8.803652881787267 L 6.792803357918175 8.774423302317363 L 6.756446609406724 8.741471466229267 L 6.723494773318629 8.705114717717818 L 6.694265193848725 8.665703192145795 L 6.66903936782582 8.623616444048993 L 6.648060233744355 8.57925979181854 L 6.631529832133893 8.533060414263225 L 6.619607359798382 8.485463236644058 L 6.6124076366638995 8.436926645800774 L 6.609999999999998 8.387918075635994 L 6.6124076366638995 8.338909505471214 L 6.619607359798382 8.29037291462793 L 6.631529832133893 8.242775737008763 L 6.648060233744355 8.196576359453449 L 6.66903936782582 8.152219707222995 L 6.694265193848725 8.110132959126194 L 6.723494773318629 8.070721433554171 L 6.756446609406724 8.034364685042721 L 6.792803357918174 8.001412848954626 L 6.832214883490197 7.972183269484722 L 6.874301631586999 7.946957443461817 L 6.918658283817453 7.925978309380351 L 6.964857661372767 7.90944790776989 L 7.012454838991934 7.897525435434379 L 7.060991429835218 7.890325712299896 L 7.109999999999998 7.887918075635994 L 7.159008570164778 7.890325712299896 L 7.207545161008062 7.897525435434379 L 7.255142338627229 7.90944790776989 L 7.3013417161825425 7.925978309380351 L 7.345698368412997 7.946957443461817 L 7.387785116509798 7.972183269484722 L 7.42719664208182 8.001412848954626 L 7.463553390593272 8.034364685042721 L 7.496505226681366 8.070721433554171 L 7.52573480615127 8.110132959126194 L 7.550960632174175 8.152219707222995 L 7.571939766255641 8.196576359453449 L 7.588470167866102 8.242775737008763 L 7.600392640201613 8.29037291462793 L 7.607592363336096 8.338909505471214 L 7.609999999999998 8.387918075635994 L 7.609999999999998 8.387918075635994 Z" fill="none" stroke="#FF0000" stroke-width="0.03" stroke-linecap="round" stroke-linejoin="round"/></g><g transform="matrix(1,0,0,1,0,0)"><path d="M 0.75 5.887918075635995 L 0.7403926402016152 5.985463236644059 L 0.7119397662556434 6.07925979181854 L 0.6657348061512727 6.165703192145797 L 0.6035533905932737 6.241471466229269 L 0.5277851165098011 6.303652881787268 L 0.4413417161825449 6.349857841891638 L 0.34754516100806415 6.3783107158376104 L 0.25000000000000006 6.387918075635995 L 0.1524548389919359 6.3783107158376104 L 0.05865828381745514 6.349857841891638 L -0.027785116509800978 6.303652881787268 L -0.10355339059327373 6.241471466229269 L -0.16573480615127267 6.165703192145797 L -0.21193976625564337 6.07925979181854 L -0.24039264020161522 5.985463236644059 L -0.25 5.887918075635995 L -0.24039264020161522 5.790372914627931 L -0.21193976625564342 5.69657635945345 L -0.16573480615127273 5.610132959126195 L -0.10355339059327384 5.534364685042721 L -0.02778511650980109 5.472183269484723 L 0.05865828381745483 5.425978309380352 L 0.15245483899193568 5.39752543543438 L 0.24999999999999992 5.387918075635995 L 0.34754516100806415 5.39752543543438 L 0.44134171618254503 5.425978309380352 L 0.5277851165098009 5.472183269484723 L 0.6035533905932737 5.534364685042721 L 0.6657348061512727 5.610132959126194 L 0.7119397662556433 5.69657635945345 L 0.7403926402016152 5.790372914627931 L 0.75 5.887918075635995 L 0.75 5.887918075635995 Z" fill="none" stroke="#FF0000" stroke-width="0.03" stroke-linecap="round" stroke-linejoin="round"/></g><g transform="matrix(1,0,0,1,0,0)"><path d="M 3.2899999999999996 5.887918075635995 L 3.287592363336098 5.936926645800775 L 3.280392640201615 5.985463236644059 L 3.268470167866104 6.033060414263226 L 3.251939766255643 6.07925979181854 L 3.230960632174177 6.123616444048994 L 3.205734806151272 6.165703192145797 L 3.176505226681368 6.205114717717818 L 3.1435533905932735 6.241471466229269 L 3.1071966420818224 6.274423302317364 L 3.0677851165098007 6.303652881787268 L 3.0256983684129986 6.328878707810173 L 2.9813417161825444 6.349857841891638 L 2.9351423386272306 6.3663882435021 L 2.8875451610080636 6.3783107158376104 L 2.83900857016478 6.385510438972093 L 2.7899999999999996 6.387918075635995 L 2.740991429835219 6.385510438972093 L 2.6924548389919356 6.3783107158376104 L 2.6448576613727686 6.3663882435021 L 2.598658283817455 6.349857841891638 L 2.5543016315870006 6.328878707810173 L 2.5122148834901985 6.303652881787268 L 2.4728033579181767 6.274423302317364 L 2.436446609406726 6.241471466229269 L 2.403494773318631 6.205114717717818 L 2.3742651938487267 6.165703192145797 L 2.349039367825822 6.123616444048994 L 2.328060233744356 6.07925979181854 L 2.3115298321338953 6.033060414263226 L 2.2996073597983844 5.985463236644059 L 2.292407636663901 5.936926645800775 L 2.2899999999999996 5.887918075635995 L 2.292407636663901 5.838909505471215 L 2.2996073597983844 5.790372914627931 L 2.3115298321338953 5.742775737008764 L 2.328060233744356 5.69657635945345 L 2.349039367825822 5.652219707222996 L 2.3742651938487267 5.610132959126195 L 2.403494773318631 5.570721433554173 L 2.4364466094067256 5.534364685042721 L 2.4728033579181767 5.501412848954627 L 2.5122148834901985 5.472183269484723 L 2.5543016315870006 5.446957443461818 L 2.5986582838174543 5.425978309380352 L 2.6448576613727686 5.4094479077698905 L 2.692454838991935 5.39752543543438 L 2.740991429835219 5.390325712299897 L 2.7899999999999996 5.387918075635995 L 2.8390085701647796 5.390325712299897 L 2.8875451610080636 5.39752543543438 L 2.9351423386272306 5.4094479077698905 L 2.9813417161825444 5.425978309380352 L 3.0256983684129986 5.446957443461818 L 3.0677851165098007 5.472183269484723 L 3.1071966420818224 5.501412848954627 L 3.143553390593273 5.534364685042721 L 3.176505226681368 5.570721433554172 L 3.205734806151272 5.610132959126194 L 3.230960632174177 5.652219707222996 L 3.251939766255643 5.69657635945345 L 3.268470167866104 5.742775737008764 L 3.280392640201615 5.790372914627931 L 3.287592363336098 5.838909505471215 L 3.2899999999999996 5.887918075635995 L 3.2899999999999996 5.887918075635995 Z" fill="none" stroke="#FF0000" stroke-width="0.03" stroke-linecap="round" stroke-linejoin="round"/></g><g transform="matrix(1,0,0,1,0,0)"><path d="M 9.389999999999999 4.487918075635995 L 9.380392640201613 4.585463236644059 L 9.351939766255642 4.67925979181854 L 9.305734806151271 4.765703192145796 L 9.243553390593272 4.841471466229269 L 9.1677851165098 4.903652881787267 L 9.081341716182544 4.949857841891638 L 8.987545161008063 4.97831071583761 L 8.889999999999999 4.987918075635995 L 8.792454838991935 4.97831071583761 L 8.698658283817453 4.949857841891638 L 8.612214883490198 4.903652881787267 L 8.536446609406726 4.841471466229269 L 8.474265193848726 4.765703192145796 L 8.428060233744356 4.67925979181854 L 8.399607359798384 4.585463236644059 L 8.389999999999999 4.487918075635995 L 8.399607359798384 4.390372914627931 L 8.428060233744356 4.29657635945345 L 8.474265193848726 4.210132959126194 L 8.536446609406726 4.134364685042721 L 8.612214883490198 4.072183269484722 L 8.698658283817453 4.025978309380352 L 8.792454838991935 3.9975254354343797 L 8.889999999999999 3.987918075635995 L 8.987545161008063 3.9975254354343797 L 9.081341716182544 4.025978309380352 L 9.1677851165098 4.072183269484722 L 9.243553390593272 4.134364685042721 L 9.305734806151271 4.210132959126193 L 9.351939766255642 4.29657635945345 L 9.380392640201613 4.390372914627931 L 9.389999999999999 4.487918075635995 L 9.389999999999999 4.487918075635995 Z" fill="none" stroke="#FF0000" stroke-width="0.03" stroke-linecap="round" stroke-linejoin="round"/></g><g transform="matrix(1,0,0,1,0,0)"><path d="M 11.929999999999998 4.487918075635995 L 11.927592363336096 4.536926645800775 L 11.920392640201612 4.585463236644059 L 11.908470167866103 4.633060414263226 L 11.891939766255641 4.67925979181854 L 11.870960632174176 4.723616444048994 L 11.84573480615127 4.765703192145796 L 11.816505226681366 4.805114717717817 L 11.783553390593271 4.841471466229269 L 11.747196642081821 4.874423302317363 L 11.707785116509799 4.903652881787267 L 11.665698368412997 4.928878707810172 L 11.621341716182544 4.949857841891638 L 11.575142338627229 4.9663882435021 L 11.527545161008062 4.97831071583761 L 11.479008570164778 4.985510438972093 L 11.429999999999998 4.987918075635995 L 11.380991429835218 4.985510438972093 L 11.332454838991934 4.97831071583761 L 11.284857661372767 4.9663882435021 L 11.238658283817452 4.949857841891638 L 11.194301631586999 4.928878707810172 L 11.152214883490197 4.903652881787267 L 11.112803357918175 4.874423302317363 L 11.076446609406725 4.841471466229269 L 11.04349477331863 4.805114717717817 L 11.014265193848725 4.765703192145796 L 10.989039367825821 4.723616444048994 L 10.968060233744355 4.67925979181854 L 10.951529832133893 4.633060414263226 L 10.939607359798384 4.585463236644059 L 10.9324076366639 4.536926645800775 L 10.929999999999998 4.487918075635995 L 10.9324076366639 4.438909505471215 L 10.939607359798384 4.390372914627931 L 10.951529832133893 4.342775737008764 L 10.968060233744355 4.29657635945345 L 10.98903936782582 4.252219707222996 L 11.014265193848725 4.210132959126194 L 11.04349477331863 4.1707214335541725 L 11.076446609406725 4.134364685042721 L 11.112803357918175 4.101412848954626 L 11.152214883490197 4.072183269484722 L 11.194301631586999 4.046957443461817 L 11.238658283817452 4.025978309380352 L 11.284857661372767 4.00944790776989 L 11.332454838991934 3.9975254354343797 L 11.380991429835218 3.9903257122998963 L 11.429999999999998 3.987918075635995 L 11.479008570164778 3.9903257122998963 L 11.527545161008062 3.9975254354343797 L 11.575142338627229 4.00944790776989 L 11.621341716182544 4.025978309380352 L 11.665698368412997 4.046957443461817 L 11.707785116509799 4.072183269484722 L 11.747196642081821 4.101412848954626 L 11.783553390593271 4.134364685042721 L 11.816505226681366 4.170721433554172 L 11.84573480615127 4.210132959126193 L 11.870960632174175 4.252219707222996 L 11.891939766255641 4.29657635945345 L 11.908470167866103 4.342775737008764 L 11.920392640201612 4.390372914627931 L 11.927592363336096 4.438909505471215 L 11.929999999999998 4.487918075635995 L 11.929999999999998 4.487918075635995 Z" fill="none" stroke="#FF0000" stroke-width="0.03" stroke-linecap="round" stroke-linejoin="round"/></g><g transform="matrix(1,0,0,1,0,0)"><path d="M -2.5000000000000018 -0.7620819243640051 L 14.179999999999998 -0.7620819243640051 L 14.179999999999998 11.137918075635994 L -2.5000000000000018 11.137918075635994 L -2.5000000000000018 -0.7620819243640051 L -2.5000000000000018 -0.7620819243640051 Z" fill="none" stroke="#FF0000" stroke-width="0.03" stroke-linecap="round" stroke-linejoin="round"/></g><g transform="matrix(1,0,0,1,0,0)"><path d="M 4.649999999999999 1.9879180756359949 L 4.643910362600901 2.018532750225202 L 4.6265685424949226 2.0444866181309185 L 4.600614674589206 2.0618284382368977 L 4.5699999999999985 2.067918075635995 L 4.539385325410791 2.0618284382368977 L 4.5134314575050745 2.0444866181309185 L 4.496089637399096 2.018532750225202 L 4.489999999999998 1.9879180756359949 L 4.496089637399096 1.9573034010467878 L 4.5134314575050745 1.931349533141071 L 4.539385325410791 1.9140077130350919 L 4.5699999999999985 1.9079180756359948 L 4.600614674589206 1.9140077130350919 L 4.6265685424949226 1.931349533141071 L 4.643910362600901 1.9573034010467876 L 4.649999999999999 1.9879180756359949 L 4.649999999999999 1.9879180756359949 Z" fill="none" stroke="#800080" stroke-width="0.03" stroke-linecap="round" stroke-linejoin="round"/></g><g transform="matrix(1,0,0,1,0,0)"><path d="M 7.189999999999998 1.9879180756359949 L 7.1839103626009 2.018532750225202 L 7.166568542494922 2.0444866181309185 L 7.140614674589205 2.0618284382368977 L 7.109999999999998 2.067918075635995 L 7.07938532541079 2.0618284382368977 L 7.053431457505074 2.0444866181309185 L 7.036089637399095 2.018532750225202 L 7.029999999999998 1.9879180756359949 L 7.036089637399095 1.9573034010467878 L 7.053431457505074 1.931349533141071 L 7.07938532541079 1.9140077130350919 L 7.109999999999998 1.9079180756359948 L 7.140614674589205 1.9140077130350919 L 7.166568542494922 1.931349533141071 L 7.1839103626009 1.9573034010467876 L 7.189999999999998 1.9879180756359949 L 7.189999999999998 1.9879180756359949 Z" fill="none" stroke="#800080" stroke-width="0.03" stroke-linecap="round" stroke-linejoin="round"/></g><g transform="matrix(1,0,0,1,0,0)"><path d="M 4.649999999999999 8.387918075635994 L 4.643910362600901 8.418532750225202 L 4.6265685424949226 8.444486618130918 L 4.600614674589206 8.461828438236898 L 4.5699999999999985 8.467918075635994 L 4.539385325410791 8.461828438236898 L 4.5134314575050745 8.444486618130918 L 4.496089637399096 8.418532750225202 L 4.489999999999998 8.387918075635994 L 4.496089637399096 8.357303401046787 L 4.5134314575050745 8.33134953314107 L 4.539385325410791 8.31400771303509 L 4.5699999999999985 8.307918075635994 L 4.600614674589206 8.31400771303509 L 4.6265685424949226 8.33134953314107 L 4.643910362600901 8.357303401046787 L 4.649999999999999 8.387918075635994 L 4.649999999999999 8.387918075635994 Z" fill="none" stroke="#800080" stroke-width="0.03" stroke-linecap="round" stroke-linejoin="round"/></g><g transform="matrix(1,0,0,1,0,0)"><path d="M 7.189999999999998 8.387918075635994 L 7.1839103626009 8.418532750225202 L 7.166568542494922 8.444486618130918 L 7.140614674589205 8.461828438236898 L 7.109999999999998 8.467918075635994 L 7.07938532541079 8.461828438236898 L 7.053431457505074 8.444486618130918 L 7.036089637399095 8.418532750225202 L 7.029999999999998 8.387918075635994 L 7.036089637399095 8.357303401046787 L 7.053431457505074 8.33134953314107 L 7.07938532541079 8.31400771303509 L 7.109999999999998 8.307918075635994 L 7.140614674589205 8.31400771303509 L 7.166568542494922 8.33134953314107 L 7.1839103626009 8.357303401046787 L 7.189999999999998 8.387918075635994 L 7.189999999999998 8.387918075635994 Z" fill="none" stroke="#800080" stroke-width="0.03" stroke-linecap="round" stroke-linejoin="round"/></g><g transform="matrix(1,0,0,1,0,0)"><path d="M 0.33 5.887918075635995 L 0.32391036260090295 5.918532750225203 L 0.3065685424949238 5.944486618130919 L 0.2806146745892072 5.961828438236898 L 0.25 5.967918075635995 L 0.2193853254107928 5.961828438236898 L 0.1934314575050762 5.944486618130919 L 0.17608963739909705 5.918532750225203 L 0.16999999999999998 5.887918075635995 L 0.17608963739909705 5.857303401046788 L 0.19343145750507618 5.831349533141071 L 0.21938532541079278 5.8140077130350925 L 0.24999999999999997 5.807918075635995 L 0.2806146745892072 5.8140077130350925 L 0.30656854249492377 5.831349533141071 L 0.3239103626009029 5.857303401046788 L 0.33 5.887918075635995 L 0.33 5.887918075635995 Z" fill="none" stroke="#800080" stroke-width="0.03" stroke-linecap="round" stroke-linejoin="round"/></g><g transform="matrix(1,0,0,1,0,0)"><path d="M 2.8699999999999997 5.887918075635995 L 2.8639103626009024 5.918532750225203 L 2.846568542494923 5.944486618130919 L 2.8206146745892067 5.961828438236898 L 2.7899999999999996 5.967918075635995 L 2.7593853254107925 5.961828438236898 L 2.733431457505076 5.944486618130919 L 2.716089637399097 5.918532750225203 L 2.7099999999999995 5.887918075635995 L 2.716089637399097 5.857303401046788 L 2.733431457505076 5.831349533141071 L 2.7593853254107925 5.8140077130350925 L 2.7899999999999996 5.807918075635995 L 2.8206146745892067 5.8140077130350925 L 2.846568542494923 5.831349533141071 L 2.8639103626009024 5.857303401046788 L 2.8699999999999997 5.887918075635995 L 2.8699999999999997 5.887918075635995 Z" fill="none" stroke="#800080" stroke-width="0.03" stroke-linecap="round" stroke-linejoin="round"/></g><g transform="matrix(1,0,0,1,0,0)"><path d="M 8.969999999999999 4.487918075635995 L 8.963910362600902 4.518532750225202 L 8.946568542494923 4.544486618130919 L 8.920614674589206 4.561828438236898 L 8.889999999999999 4.567918075635995 L 8.859385325410791 4.561828438236898 L 8.833431457505075 4.544486618130919 L 8.816089637399095 4.518532750225202 L 8.809999999999999 4.487918075635995 L 8.816089637399095 4.457303401046787 L 8.833431457505075 4.431349533141071 L 8.859385325410791 4.414007713035092 L 8.889999999999999 4.407918075635995 L 8.920614674589206 4.414007713035092 L 8.946568542494923 4.431349533141071 L 8.963910362600902 4.457303401046787 L 8.969999999999999 4.487918075635995 L 8.969999999999999 4.487918075635995 Z" fill="none" stroke="#800080" stroke-width="0.03" stroke-linecap="round" stroke-linejoin="round"/></g><g transform="matrix(1,0,0,1,0,0)"><path d="M 11.509999999999998 4.487918075635995 L 11.503910362600902 4.518532750225202 L 11.486568542494922 4.544486618130919 L 11.460614674589205 4.561828438236898 L 11.429999999999998 4.567918075635995 L 11.39938532541079 4.561828438236898 L 11.373431457505074 4.544486618130919 L 11.356089637399094 4.518532750225202 L 11.349999999999998 4.487918075635995 L 11.356089637399094 4.457303401046787 L 11.373431457505074 4.431349533141071 L 11.39938532541079 4.414007713035092 L 11.429999999999998 4.407918075635995 L 11.460614674589205 4.414007713035092 L 11.486568542494922 4.431349533141071 L 11.503910362600902 4.457303401046787 L 11.509999999999998 4.487918075635995 L 11.509999999999998 4.487918075635995 Z" fill="none" stroke="#800080" stroke-width="0.03" stroke-linecap="round" stroke-linejoin="round"/></g><g transform="matrix(1,0,0,1,0,0)"><path d="M 11.576317742466927 3.7523291185498238 L 11.717012576758862 3.7950084283947945 L 11.846677675843239 3.8643158674240112 L 11.960330083966255 3.9575879871845245 L 12.053602211177349 4.0712404027581215 L 12.122909650206566 4.200905501842499 L 12.165588960051537 4.341600336134434 L 12.179999999701977 4.4879180788993835 L 12.165588960051537 4.634235814213753 L 12.122909650206566 4.774930648505688 L 12.053602211177349 4.904595747590065 L 11.960330083966255 5.018248163163662 L 11.846677675843239 5.111520282924175 L 11.717012576758862 5.180827721953392 L 11.576317742466927 5.223507039248943 L 11.429999999701977 5.2379180788993835 L 11.283682256937027 5.223507039248943 L 11.142987422645092 5.180827721953392 L 11.016715906560421 5.113334193825722 L 10.285264544188976 5.844785563647747 L 10.019899666309357 6.0019523575901985 L 8.47807440906763 6.0019523575901985 L 8.20804337412119 5.9992949813604355 L 7.922301635146141 5.9203981757164 L 7.682942874729633 5.736402094364166 L 7.49454390257597 5.479397930204868 L 7.491883359849453 5.237288720905781 L 7.368750348687172 5.102654792368412 L 7.207776561379433 4.9860435873270035 L 7.1400000005960464 4.974669352173805 L 7.1400000005960464 4.9879180788993835 L 6.340000003576279 4.9879180788993835 L 6.340000003576279 4.587918072938919 L 7.1400000005960464 4.587918072938919 L 7.1400000005960464 4.670474179089069 L 7.326804116368294 4.701823562383652 L 7.569499254226685 4.87763462215662 L 7.790605917572975 5.119393169879913 L 7.793466955423355 5.3797474056482315 L 7.8996425196528435 5.5245866402983665 L 8.058657325804234 5.646821983158588 L 8.250147596001625 5.6996948048472404 L 8.479550518095493 5.70195235311985 L 9.937725260853767 5.70195235311985 L 10.099861718714237 5.6059243232011795 L 10.804583877325058 4.901202157139778 L 10.737090349197388 4.774930648505688 L 10.694411039352417 4.634235814213753 L 10.679999999701977 4.4879180788993835 L 10.694411039352417 4.341600336134434 L 10.737090349197388 4.200905501842499 L 10.806397788226604 4.0712404027581215 L 10.899669915437698 3.9575879871845245 L 11.013322323560715 3.8643158674240112 L 11.142987422645092 3.7950084283947945 L 11.283682256937027 3.7523291185498238 L 11.429999999701977 3.7379180788993835 L 11.576317742466927 3.7523291185498238 L 11.576317742466927 3.7523291185498238" fill="none" stroke="#000000" stroke-width="0.03" stroke-linecap="round" stroke-linejoin="round"/></g><g transform="matrix(1,0,0,1,0,0)"><path d="M 7.347752965986729 0.21908090263605118 L 7.531900659203529 0.3966613784432411 L 7.710445933043957 0.4935721680521965 L 7.948323220014572 0.5530505105853081 L 8.20148054510355 0.6712301000952721 L 8.432830512523651 0.8745366334915161 L 8.537290453910828 1.1675073951482773 L 8.524220459163189 1.3823641762137413 L 8.648597732186317 1.5128005594015121 L 8.82960818707943 1.6938110142946243 L 9.022542603313923 1.9314792603254318 L 9.03999999910593 2.2335878014564514 L 9.03999999910593 3.7379180788993835 L 9.640000000596046 3.7379180788993835 L 9.640000000596046 5.2379180788993835 L 8.140000000596046 5.2379180788993835 L 8.140000000596046 3.7379180788993835 L 8.740000002086163 3.7379180788993835 L 8.740000002086163 2.242248348891735 L 8.728625766932964 2.045411817729473 L 8.606486894190311 1.8949537798762321 L 8.433943957090378 1.7224108502268791 L 8.216831088066101 1.4947212114930153 L 8.234120577573776 1.210500530898571 L 8.176375322043896 1.0485468655824661 L 8.035687796771526 0.9249129891395569 L 7.847564190626144 0.8370926156640053 L 7.600768767297268 0.7753844037652016 L 7.352981388568878 0.6408903822302818 L 7.177297800779343 0.4714721590280533 L 7.0175736248493195 0.3999999985098839 L 4.813525505363941 0.3999999985098839 L 4.617533437907696 0.43669668585062027 L 4.451459899544716 0.5489805266261101 L 4.2638775035738945 0.7365629225969315 L 3.9942821711301804 0.8490244895219803 L 3.759484514594078 0.8378436490893364 L 3.6028300896286964 0.9405371844768524 L 3.4790684431791306 1.0602644607424736 L 3.4695428907871246 1.2661248072981834 L 3.4610008001327515 1.5110706090927124 L 3.463718332350254 1.7584328055381775 L 3.463686302304268 2.5075356364250183 L 3.469204366207123 2.749310962855816 L 3.49164579808712 2.9562092274427414 L 3.612655758857727 3.155094653367996 L 3.718104548752308 3.399818442761898 L 3.7628033980727196 3.612107828259468 L 3.902735114097595 3.780030369758606 L 4.032758042216301 3.9665455147624016 L 4.272897481918335 4.156122542917728 L 4.3226688131690025 4.406615644693375 L 4.450743637979031 4.519734784960747 L 4.629718437790871 4.587918072938919 L 5.340000003576279 4.587918072938919 L 5.340000003576279 4.9879180788993835 L 4.53999999910593 4.9879180788993835 L 4.53999999910593 4.874771349132061 L 4.2930028066039085 4.78067384660244 L 4.048159241676331 4.564421407878399 L 4.000202789902687 4.323062390089035 L 3.8120353370904922 4.174514412879944 L 3.664008967578411 3.962173715233803 L 3.4846026226878166 3.7468803450465202 L 3.43072210252285 3.490984223783016 L 3.345452979207039 3.2930930703878403 L 3.2006047517061234 3.055028349161148 L 3.169574335217476 2.768944203853607 L 3.1636863052845 2.510958656668663 L 3.1637181267142296 1.760061502456665 L 3.1609433442354202 1.5074887052178383 L 3.1697846427559853 1.2539632096886635 L 3.184893324971199 0.92744380235672 L 3.4146313667297363 0.7051947265863419 L 3.6764670237898827 0.5335504934191704 L 3.94110344350338 0.546152226626873 L 4.093665190041065 0.48251116275787354 L 4.259636178612709 0.3165401667356491 L 4.5011007860302925 0.1532837450504303 L 4.785682089626789 0.10000000149011612 L 7.081633970141411 0.10000000149011612 L 7.347752965986729 0.21908090263605118 L 7.347752965986729 0.21908090263605118" fill="none" stroke="#000000" stroke-width="0.03" stroke-linecap="round" stroke-linejoin="round"/></g><g transform="matrix(1,0,0,1,0,0)"><path d="M 2.93631774187088 5.152329117059708 L 3.077012576162815 5.195008426904678 L 3.2066776752471924 5.264315865933895 L 3.3203300833702087 5.357587993144989 L 3.4136022105813026 5.471240401268005 L 3.4829096496105194 5.600905500352383 L 3.52558895945549 5.741600334644318 L 3.5399999991059303 5.887918077409267 L 3.52558895945549 6.034235820174217 L 3.4829096496105194 6.174930647015572 L 3.4136022105813026 6.3045957535505295 L 3.3203300833702087 6.418248161673546 L 3.2066776752471924 6.511520281434059 L 3.077012576162815 6.5808277279138565 L 2.939999997615814 6.622390031814575 L 2.939999997615814 8.347444355487823 L 3.035443067550659 8.511429101228714 L 3.1997257247567177 8.675711750984192 L 3.410175710916519 8.896582692861557 L 3.424409359693527 9.167021967470646 L 3.5145589411258698 9.329339861869812 L 3.639115236699581 9.462676167488098 L 3.84537635743618 9.49952269345522 L 4.105858072638512 9.585062772035599 L 4.297284588217735 9.75339562445879 L 4.4710350558161736 9.824994385242462 L 4.66624803841114 9.830293215811253 L 4.847784578800201 9.768462590873241 L 5.0597163438797 9.643940195441246 L 5.304983340203762 9.572639100253582 L 5.488874681293964 9.483103416860104 L 5.618244245648384 9.334438994526863 L 5.705892331898212 9.163187004625797 L 5.6975827142596245 8.952673986554146 L 5.691908188164234 8.699873372912407 L 5.691942438483238 7.7070634588599205 L 5.664865709841251 7.478740446269512 L 5.596176661550999 7.211689278483391 L 5.650959014892578 6.96677066385746 L 5.643574647605419 6.726034455001354 L 5.664685122668743 6.483609117567539 L 5.669370710849762 6.2461195811629295 L 5.706526882946491 5.97045424580574 L 5.8200801610946655 5.729200355708599 L 6.036554977297783 5.515857174992561 L 6.329419985413551 5.389373026788235 L 6.340000003576279 5.390986420214176 L 6.340000003576279 5.387918077409267 L 7.1400000005960464 5.387918077409267 L 7.1400000005960464 5.787918075919151 L 6.340000003576279 5.787918075919151 L 6.340000003576279 5.7115868628025055 L 6.207102410495281 5.768983408808708 L 6.068744957447052 5.905339308083057 L 5.997660018503666 6.056365489959717 L 5.968973912298679 6.269190564751625 L 5.964428037405014 6.499598801136017 L 5.943974733352661 6.7344774305820465 L 5.951977103948593 6.99536095559597 L 5.904683604836464 7.206798695027828 L 5.960412584245205 7.423463344573975 L 5.991942435503006 7.689337134361267 L 5.991908647119999 8.6965272128582 L 5.997449904680252 8.943390801548958 L 6.008759193122387 9.229896433651447 L 5.8686059564352036 9.503736078739166 L 5.675101138651371 9.726101227104664 L 5.413302965462208 9.8535693064332 L 5.179412707686424 9.921563096344471 L 4.973423130810261 10.042594105005264 L 4.711967870593071 10.13164472579956 L 4.40774492174387 10.123386941850185 L 4.136739164590836 10.011711411178112 L 3.9538875743746758 9.850919000804424 L 3.7718355879187584 9.791134610772133 L 3.4880556166172028 9.740440100431442 L 3.270181566476822 9.507208034396172 L 3.1284692585468292 9.252049431204796 L 3.1164234951138496 9.023179791867733 L 2.985031448304653 8.885281547904015 L 2.795760713517666 8.696010813117027 L 2.6400000005960464 8.42839179188013 L 2.6400000005960464 6.622390031814575 L 2.5029874220490456 6.5808277279138565 L 2.3733223229646683 6.511520281434059 L 2.259669914841652 6.418248161673546 L 2.166397787630558 6.3045957535505295 L 2.0970903486013412 6.174930647015572 L 2.0544110387563705 6.034235820174217 L 2.0399999991059303 5.887918077409267 L 2.0544110387563705 5.741600334644318 L 2.0970903486013412 5.600905500352383 L 2.166397787630558 5.471240401268005 L 2.259669914841652 5.357587993144989 L 2.3733223229646683 5.264315865933895 L 2.5029874220490456 5.195008426904678 L 2.6436822563409805 5.152329117059708 L 2.7899999991059303 5.137918077409267 L 2.93631774187088 5.152329117059708 L 2.93631774187088 5.152329117059708" fill="none" stroke="#000000" stroke-width="0.03" stroke-linecap="round" stroke-linejoin="round"/></g><g transform="matrix(1,0,0,1,0,0)"><path d="M 2.295152261853218 4.478462293744087 L 2.5398281142115593 4.482456095516682 L 3.297035224735737 4.482456095516682 L 3.5791957154870033 4.514276131987572 L 3.8531312197446823 4.646662935614586 L 4.060732692480087 4.848580859601498 L 4.208263702690601 5.0892316326498985 L 4.30173110216856 5.259867735207081 L 4.452566534280777 5.371575430035591 L 4.53999999910593 5.397176221013069 L 4.53999999910593 5.387918077409267 L 5.340000003576279 5.387918077409267 L 5.340000003576279 5.787918075919151 L 4.53999999910593 5.787918075919151 L 4.53999999910593 5.709771856665611 L 4.316971816122532 5.644468501210213 L 4.070258311927319 5.461754165589809 L 3.9486704245209694 5.239780679345131 L 3.8246168047189713 5.037425950169563 L 3.6788168400526047 4.895617574453354 L 3.4947292655706406 4.806652240455151 L 3.2801727429032326 4.782456092536449 L 2.53737985342741 4.782456092536449 L 2.282405488193035 4.778294190764427 L 2.046508453786373 4.762073524296284 L 1.8414218798279762 4.79478944838047 L 1.638907290995121 4.897126071155071 L 1.4203281998634338 5.0064156129956245 L 1.2270208224654198 5.123029284179211 L 1 5.35005010664463 L 1 6.637918077409267 L -0.5 6.637918077409267 L -0.5 5.137918077409267 L 0.7878679633140564 5.137918077409267 L 1.0407461300492287 4.885039910674095 L 1.2755378857254982 4.743400573730469 L 1.5041723921895027 4.6290833204984665 L 1.7479155659675598 4.50591266900301 L 2.0329957008361816 4.460435979068279 L 2.295152261853218 4.478462293744087 L 2.295152261853218 4.478462293744087" fill="none" stroke="#000000" stroke-width="0.03" stroke-linecap="round" stroke-linejoin="round"/></g><g transform="matrix(1,0,0,1,0,0)"><path d="M 7.1400000005960464 6.578707113862038 L 7.259999997913837 6.85695093870163 L 7.259999997913837 7.653446115553379 L 7.397012576460838 7.695008426904678 L 7.526677675545216 7.764315865933895 L 7.640330083668232 7.857587993144989 L 7.733602210879326 7.971240401268005 L 7.802909649908543 8.100905500352383 L 7.845588959753513 8.241600334644318 L 7.8599999994039536 8.387918077409267 L 7.845588959753513 8.534235820174217 L 7.802909649908543 8.674930647015572 L 7.733602210879326 8.80459575355053 L 7.640330083668232 8.918248161673546 L 7.526677675545216 9.01152028143406 L 7.397012576460838 9.080827727913857 L 7.256317742168903 9.123507037758827 L 7.1099999994039536 9.137918077409267 L 6.963682256639004 9.123507037758827 L 6.822987422347069 9.080827727913857 L 6.6933223232626915 9.01152028143406 L 6.579669915139675 8.918248161673546 L 6.486397787928581 8.80459575355053 L 6.4170903488993645 8.674930647015572 L 6.374411039054394 8.534235820174217 L 6.3599999994039536 8.387918077409267 L 6.374411039054394 8.241600334644318 L 6.4170903488993645 8.100905500352383 L 6.486397787928581 7.971240401268005 L 6.579669915139675 7.857587993144989 L 6.6933223232626915 7.764315865933895 L 6.822987422347069 7.695008426904678 L 6.96000000089407 7.653446115553379 L 6.96000000089407 6.918885216116905 L 6.885051019489765 6.745101131498814 L 6.777867965400219 6.637918077409267 L 6.340000003576279 6.637918077409267 L 6.340000003576279 6.137918077409267 L 7.1400000005960464 6.137918077409267 L 7.1400000005960464 6.578707113862038 L 7.1400000005960464 6.578707113862038" fill="none" stroke="#000000" stroke-width="0.03" stroke-linecap="round" stroke-linejoin="round"/></g><g transform="matrix(1,0,0,1,0,0)"><path d="M 5.340000003576279 6.637918077409267 L 4.902132034301758 6.637918077409267 L 4.794948980212212 6.745101131498814 L 4.719999998807907 6.918885216116905 L 4.719999998807907 7.637918077409267 L 5.320000000298023 7.637918077409267 L 5.320000000298023 9.137918077409267 L 3.8200000002980232 9.137918077409267 L 3.8200000002980232 7.637918077409267 L 4.420000001788139 7.637918077409267 L 4.420000001788139 6.85695093870163 L 4.53999999910593 6.5787071362137794 L 4.53999999910593 6.137918077409267 L 5.340000003576279 6.137918077409267 L 5.340000003576279 6.637918077409267 L 5.340000003576279 6.637918077409267" fill="none" stroke="#000000" stroke-width="0.03" stroke-linecap="round" stroke-linejoin="round"/></g><g transform="matrix(1,0,0,1,0,0)"><path d="M 7.256317742168903 1.2523291185498238 L 7.397012576460838 1.2950084283947945 L 7.526677675545216 1.3643158674240112 L 7.640330083668232 1.4575879871845245 L 7.733602210879326 1.5712404027581215 L 7.802909649908543 1.7009055018424988 L 7.845588959753513 1.8416003361344337 L 7.8599999994039536 1.9879180788993835 L 7.845588959753513 2.1342358142137527 L 7.802909649908543 2.2749306485056877 L 7.733602210879326 2.404595747590065 L 7.640330083668232 2.518248163163662 L 7.526677675545216 2.6115202829241753 L 7.397012576460838 2.680827721953392 L 7.259999997913837 2.7223900333046913 L 7.259999997913837 3.5188852101564407 L 7.1400000005960464 3.797129027545452 L 7.1400000005960464 4.2379180788993835 L 6.340000003576279 4.2379180788993835 L 6.340000003576279 3.7379180788993835 L 6.777867965400219 3.7379180788993835 L 6.885051019489765 3.6307350248098373 L 6.96000000089407 3.4569509401917458 L 6.96000000089407 2.7223900333046913 L 6.822987422347069 2.680827721953392 L 6.6933223232626915 2.6115202829241753 L 6.579669915139675 2.518248163163662 L 6.486397787928581 2.404595747590065 L 6.4170903488993645 2.2749306485056877 L 6.374411039054394 2.1342358142137527 L 6.3599999994039536 1.9879180788993835 L 6.374411039054394 1.8416003361344337 L 6.4170903488993645 1.7009055018424988 L 6.486397787928581 1.5712404027581215 L 6.579669915139675 1.4575879871845245 L 6.6933223232626915 1.3643158674240112 L 6.822987422347069 1.2950084283947945 L 6.963682256639004 1.2523291185498238 L 7.1099999994039536 1.2379180788993835 L 7.256317742168903 1.2523291185498238 L 7.256317742168903 1.2523291185498238" fill="none" stroke="#000000" stroke-width="0.03" stroke-linecap="round" stroke-linejoin="round"/></g><g transform="matrix(1,0,0,1,0,0)"><path d="M 5.320000000298023 2.7379180788993835 L 4.719999998807907 2.7379180788993835 L 4.719999998807907 3.4569509401917458 L 4.794948980212212 3.6307350248098373 L 4.902132034301758 3.7379180788993835 L 5.340000003576279 3.7379180788993835 L 5.340000003576279 4.2379180788993835 L 4.53999999910593 4.2379180788993835 L 4.53999999910593 3.7971290051937103 L 4.420000001788139 3.5188852101564407 L 4.420000001788139 2.7379180788993835 L 3.8200000002980232 2.7379180788993835 L 3.8200000002980232 1.2379180788993835 L 5.320000000298023 1.2379180788993835 L 5.320000000298023 2.7379180788993835 L 5.320000000298023 2.7379180788993835" fill="none" stroke="#000000" stroke-width="0.03" stroke-linecap="round" stroke-linejoin="round"/></g></g></svg>