<svg xmlns="http://www.w3.org/2000/svg" width="600" height="400" viewBox="-2.3 -4.15 10 10" style="background-color: white;"><rect x="-2.3" y="-4.15" width="10" height="10" fill="white"/><g transform="matrix(1 0 0 -1 0 1.6999999999999993)"><g transform="matrix(1,0,0,1,0,0)"><path d="M 5.2 0.85 L 5.197592363336098 0.8990085701647803 L 5.190392640201615 0.9475451610080641 L 5.178470167866105 0.9951423386272311 L 5.161939766255643 1.041341716182545 L 5.140960632174178 1.0856983684129988 L 5.115734806151273 1.1277851165098012 L 5.086505226681369 1.1671966420818227 L 5.053553390593274 1.2035533905932736 L 5.017196642081823 1.2365052266813685 L 4.977785116509802 1.2657348061512725 L 4.935698368412999 1.2909606321741776 L 4.891341716182545 1.3119397662556433 L 4.845142338627231 1.3284701678661044 L 4.797545161008064 1.3403926402016153 L 4.74900857016478 1.3475923633360984 L 4.7 1.35 L 4.65099142983522 1.3475923633360984 L 4.602454838991936 1.3403926402016153 L 4.554857661372769 1.3284701678661044 L 4.508658283817455 1.3119397662556433 L 4.464301631587001 1.2909606321741776 L 4.4222148834901995 1.2657348061512725 L 4.382803357918178 1.2365052266813685 L 4.346446609406726 1.2035533905932738 L 4.313494773318632 1.1671966420818227 L 4.284265193848728 1.1277851165098012 L 4.259039367825823 1.0856983684129988 L 4.238060233744357 1.041341716182545 L 4.221529832133895 0.9951423386272311 L 4.209607359798385 0.9475451610080643 L 4.202407636663902 0.8990085701647804 L 4.2 0.8500000000000001 L 4.202407636663902 0.8009914298352196 L 4.209607359798385 0.7524548389919358 L 4.221529832133895 0.704857661372769 L 4.238060233744357 0.6586582838174552 L 4.259039367825823 0.6143016315870011 L 4.284265193848728 0.572214883490199 L 4.313494773318632 0.5328033579181773 L 4.346446609406726 0.49644660940672625 L 4.382803357918177 0.46349477331863165 L 4.422214883490199 0.43426519384872736 L 4.464301631587001 0.4090393678258225 L 4.508658283817455 0.3880602337443567 L 4.554857661372769 0.37152983213389557 L 4.602454838991936 0.3596073597983848 L 4.65099142983522 0.3524076366639015 L 4.7 0.35 L 4.74900857016478 0.3524076366639015 L 4.797545161008064 0.35960735979838476 L 4.845142338627231 0.3715298321338955 L 4.891341716182545 0.38806023374435666 L 4.935698368412999 0.40903936782582245 L 4.977785116509801 0.43426519384872725 L 5.017196642081823 0.46349477331863154 L 5.053553390593274 0.49644660940672614 L 5.086505226681369 0.532803357918177 L 5.115734806151273 0.5722148834901989 L 5.140960632174178 0.614301631587001 L 5.161939766255643 0.6586582838174548 L 5.178470167866105 0.7048576613727687 L 5.190392640201615 0.7524548389919357 L 5.197592363336098 0.8009914298352198 L 5.2 0.85 L 5.2 0.85 Z" fill="none" stroke="#FF0000" stroke-width="0.01" stroke-linecap="round" stroke-linejoin="round"/></g><g transform="matrix(1,0,0,1,0,0)"><path d="M -2.3 -4.15 L 7.7 -4.15 L 7.7 5.85 L -2.3 5.85 L -2.3 -4.15 L -2.3 -4.15 Z" fill="none" stroke="#FF0000" stroke-width="0.01" stroke-linecap="round" stroke-linejoin="round"/></g><g transform="matrix(1,0,0,1,0,0)"><path d="M 4.78 0.85 L 4.773910362600903 0.8806146745892072 L 4.756568542494924 0.9065685424949238 L 4.730614674589208 0.9239103626009029 L 4.7 0.9299999999999999 L 4.669385325410793 0.9239103626009029 L 4.643431457505076 0.9065685424949238 L 4.626089637399097 0.8806146745892072 L 4.62 0.85 L 4.626089637399097 0.8193853254107928 L 4.643431457505076 0.7934314575050762 L 4.669385325410793 0.7760896373990971 L 4.7 0.77 L 4.730614674589208 0.7760896373990971 L 4.756568542494924 0.7934314575050762 L 4.773910362600903 0.8193853254107928 L 4.78 0.85 L 4.78 0.85 Z" fill="none" stroke="#800080" stroke-width="0.01" stroke-linecap="round" stroke-linejoin="round"/></g><g transform="matrix(1,0,0,1,0,0)"><path d="M 4.846317738294601 0.11441104114055634 L 4.987012572586536 0.15709035098552704 L 5.116677671670914 0.2263977900147438 L 5.230330087244511 0.3196699172258377 L 5.323602207005024 0.43332232534885406 L 5.392909646034241 0.5629874244332314 L 5.435588963329792 0.7036822587251663 L 5.450000002980232 0.8500000014901161 L 5.435588963329792 0.9963177442550659 L 5.392909646034241 1.1370125710964203 L 5.323602207005024 1.2666776776313782 L 5.230330087244511 1.3803300857543945 L 5.116677671670914 1.4736022055149078 L 4.987012572586536 1.5429096519947052 L 4.846317738294601 1.585588961839676 L 4.700000002980232 1.6000000014901161 L 4.553682260215282 1.585588961839676 L 4.4129874259233475 1.5429096519947052 L 4.28332232683897 1.4736022055149078 L 4.169669911265373 1.3803300857543945 L 4.07639779150486 1.2666776776313782 L 4.007090352475643 1.1370125710964203 L 3.9644110426306725 0.9963177442550659 L 3.957879312336445 0.9299999997019768 L 2.780000001192093 0.9299999997019768 L 2.780000001192093 2.7700000032782555 L 4.1060323640704155 2.7700000032782555 L 4.11152882874012 2.7329458072781563 L 4.125835798680782 2.675829194486141 L 4.145672284066677 2.620389938354492 L 4.1708472445607185 2.5671619549393654 L 4.201118230819702 2.5166578590869904 L 4.236193731427193 2.469364032149315 L 4.275735929608345 2.425735928118229 L 4.31936402618885 2.3861937299370766 L 4.3666578605771065 2.351118229329586 L 4.4171619564294815 2.3208472430706024 L 4.470389939844608 2.295672282576561 L 4.525829195976257 2.275835797190666 L 4.582945808768272 2.2615288347005844 L 4.641189716756344 2.2528891637921333 L 4.700000002980232 2.25 L 4.75881028175354 2.2528891637921333 L 4.8170541897416115 2.2615288347005844 L 4.874170809984207 2.275835797190666 L 4.929610058665276 2.295672282576561 L 4.982838042080402 2.3208472430706024 L 5.033342137932777 2.351118229329586 L 5.0806359723210335 2.3861937299370766 L 5.124264068901539 2.425735928118229 L 5.163806274533272 2.469364032149315 L 5.198881767690182 2.5166578590869904 L 5.229152761399746 2.5671619549393654 L 5.254327721893787 2.620389938354492 L 5.274164199829102 2.675829194486141 L 5.288471169769764 2.7329458072781563 L 5.297110833227634 2.7911897152662277 L 5.299999997019768 2.850000001490116 L 5.297110833227634 2.9088102877140045 L 5.288471169769764 2.967054195702076 L 5.274164199829102 3.024170808494091 L 5.254327721893787 3.0796100571751595 L 5.229152761399746 3.1328380405902863 L 5.198881767690182 3.1833421364426613 L 5.163806274533272 3.2306359708309174 L 5.124264068901539 3.2742640674114227 L 5.0806359723210335 3.3138062730431557 L 5.033342137932777 3.3488817662000656 L 4.982838042080402 3.37915275990963 L 4.929610058665276 3.4043277204036713 L 4.874170809984207 3.4241641983389854 L 4.8170541897416115 3.438471168279648 L 4.75881028175354 3.447110839188099 L 4.700000002980232 3.4500000029802322 L 4.641189716756344 3.447110839188099 L 4.582945808768272 3.438471168279648 L 4.525829195976257 3.4241641983389854 L 4.470389939844608 3.4043277204036713 L 4.4171619564294815 3.37915275990963 L 4.3666578605771065 3.3488817662000656 L 4.31936402618885 3.3138062730431557 L 4.275735929608345 3.2742640674114227 L 4.236193731427193 3.2306359708309174 L 4.201118230819702 3.1833421364426613 L 4.1708472445607185 3.1328380405902863 L 4.145672284066677 3.0796100571751595 L 4.125835798680782 3.024170808494091 L 4.11152882874012 2.967054195702076 L 4.1060323640704155 2.9299999997019768 L 2.619999997317791 2.9299999997019768 L 2.619999997317791 0.9249999970197678 L 1.2947093173861504 0.9249999970197678 L 1.288471169769764 0.967054195702076 L 1.2741641998291016 1.024170808494091 L 1.2543277218937874 1.0796100571751595 L 1.229152761399746 1.1328380405902863 L 1.1988817676901817 1.1833421364426613 L 1.1638062745332718 1.2306359708309174 L 1.1242640689015388 1.2742640674114227 L 1.0806359723210335 1.3138062730431557 L 1.0333421379327774 1.3488817662000656 L 0.9828380420804024 1.3791527599096298 L 0.9296100586652756 1.4043277204036713 L 0.8741708099842072 1.4241641983389854 L 0.8170541897416115 1.4384711682796478 L 0.75881028175354 1.447110839188099 L 0.7000000029802322 1.4500000029802322 L 0.6411897167563438 1.447110839188099 L 0.5829458087682724 1.4384711682796478 L 0.5258291959762573 1.4241641983389854 L 0.4703899398446083 1.4043277204036713 L 0.4171619564294815 1.3791527599096298 L 0.3666578605771065 1.3488817662000656 L 0.3193640261888504 1.3138062730431557 L 0.27573592960834503 1.2742640674114227 L 0.2361937314271927 1.2306359708309174 L 0.20111823081970215 1.1833421364426613 L 0.17084724456071854 1.1328380405902863 L 0.1456722840666771 1.0796100571751595 L 0.12583579868078232 1.024170808494091 L 0.11152882874011993 0.967054195702076 L 0.10288916528224945 0.9088102877140045 L 0.10000000149011612 0.8500000014901161 L 0.10288916528224945 0.7911897152662277 L 0.11152882874011993 0.7329458072781563 L 0.12583579868078232 0.6758291944861412 L 0.1456722840666771 0.6203899383544922 L 0.17084724456071854 0.5671619549393654 L 0.20111823081970215 0.5166578590869904 L 0.2361937314271927 0.4693640321493149 L 0.27573592960834503 0.4257359281182289 L 0.3193640261888504 0.38619372993707657 L 0.3666578605771065 0.35111822932958603 L 0.4171619564294815 0.3208472430706024 L 0.4703899398446083 0.295672282576561 L 0.5258291959762573 0.2758357971906662 L 0.5829458087682724 0.2615288347005844 L 0.6411897167563438 0.25288916379213333 L 0.7000000029802322 0.25 L 0.75881028175354 0.25288916379213333 L 0.8170541897416115 0.2615288347005844 L 0.8741708099842072 0.2758357971906662 L 0.9296100586652756 0.295672282576561 L 0.9828380420804024 0.3208472430706024 L 1.0333421379327774 0.35111822932958603 L 1.0806359723210335 0.38619372993707657 L 1.1242640689015388 0.4257359281182289 L 1.1638062745332718 0.4693640321493149 L 1.1988817676901817 0.5166578590869904 L 1.229152761399746 0.5671619549393654 L 1.2543277218937874 0.6203899383544922 L 1.2741641998291016 0.6758291944861412 L 1.288471169769764 0.7329458072781563 L 1.2947093173861504 0.7749999985098839 L 2.619999997317791 0.7749999985098839 L 2.619999997317791 0.7700000032782555 L 3.957879312336445 0.7700000032782555 L 3.9644110426306725 0.7036822587251663 L 4.007090352475643 0.5629874244332314 L 4.07639779150486 0.43332232534885406 L 4.169669911265373 0.3196699172258377 L 4.28332232683897 0.2263977900147438 L 4.4129874259233475 0.15709035098552704 L 4.553682260215282 0.11441104114055634 L 4.700000002980232 0.10000000149011612 L 4.846317738294601 0.11441104114055634 L 4.846317738294601 0.11441104114055634" fill="none" stroke="#000000" stroke-width="0.01" stroke-linecap="round" stroke-linejoin="round"/></g></g></svg>